# xmcd
#
# Track frame offsets:
#	150
#	12224
#	22939
#
# Disc length: 523 seconds
#
# Revision: 0
# Processed by: cddbd v1.5.2PL0 Copyright (c) Steve Scherf et al.
# Submitted via: audiograbber 1.83.01
#
DISCID=13020903
DTITLE=Okie Dokie Band - Okie Dokie Band
DYEAR=1900
DGENRE=
TTITLE0=Rollin Stone
TTITLE1=That´s Alrigth
TTITLE2=Lonesome Town
EXTD=
EXTT0=
EXTT1=
EXTT2=
PLAYORDER=
